# xmcd CD database file
#
# Track frame offsets:
#	150
#	24197
#	49106
#	68434
#	84767
#	104671
#	123696
#	154097
#	161556
#	183676
#	204335
#
# Disc length: 2913 seconds
#
# Revision: 0
# Processed by: cddbd v1.5.2PL0 Copyright (c) Steve Scherf et al.
# Submitted via: CDex 1.51
#
DISCID=880b5f0b
DTITLE=Hora Colora - Tales of bears and beers
DYEAR=1900
DGENRE=Jazz
TTITLE0=Lyasata
TTITLE1=Jovano Jovanke
TTITLE2=Gankino Horo II
TTITLE3=Hidegen Fúnak a Szelek
TTITLE4=The Fire Dance
TTITLE5=Makedonsko Djevojce
TTITLE6=Gankino Horo I
TTITLE7=Medo
TTITLE8=Pijanica
TTITLE9=To act like a bull in a China Shop
TTITLE10=Amari Szi Amari
EXTD=
EXTT0=
EXTT1=
EXTT2=
EXTT3=
EXTT4=
EXTT5=
EXTT6=
EXTT7=
EXTT8=
EXTT9=
EXTT10=
PLAYORDER=
